<mxfile host="app.diagrams.net" agent="Mozilla/5.0 (X11; Linux x86_64) AppleWebKit/537.36 (KHTML, like Gecko) Chrome/139.0.0.0 Safari/537.36" version="28.1.1">
  <diagram name="Page-1" id="WMawmGUrscwp0pPyB3F4">
    <mxGraphModel dx="786" dy="1153" grid="1" gridSize="10" guides="1" tooltips="1" connect="1" arrows="1" fold="1" page="1" pageScale="1" pageWidth="827" pageHeight="1169" math="0" shadow="0">
      <root>
        <mxCell id="0" />
        <mxCell id="1" parent="0" />
        <mxCell id="SBh3lDfOrI0GvirtiV9u-1" value="" style="whiteSpace=wrap;html=1;aspect=fixed;fillColor=#dae8fc;strokeColor=#6c8ebf;" parent="1" vertex="1">
          <mxGeometry x="160" y="200" width="550" height="550" as="geometry" />
        </mxCell>
        <mxCell id="SBh3lDfOrI0GvirtiV9u-2" value="&lt;font style=&quot;font-size: 14px;&quot;&gt;Select Folder&lt;/font&gt;" style="rounded=1;whiteSpace=wrap;html=1;" parent="1" vertex="1">
          <mxGeometry x="190" y="260" width="110" height="30" as="geometry" />
        </mxCell>
        <mxCell id="SBh3lDfOrI0GvirtiV9u-4" value="Photo Organizer" style="text;strokeColor=none;fillColor=none;html=1;fontSize=24;fontStyle=1;verticalAlign=middle;align=center;fontColor=#666666;" parent="1" vertex="1">
          <mxGeometry x="327" y="220" width="216" height="40" as="geometry" />
        </mxCell>
        <mxCell id="SBh3lDfOrI0GvirtiV9u-5" value="" style="rounded=1;whiteSpace=wrap;html=1;glass=0;arcSize=2;" parent="1" vertex="1">
          <mxGeometry x="190" y="330" width="470" height="370" as="geometry" />
        </mxCell>
        <UserObject label="Photo Organizer Logs" placeholders="1" name="Variable" id="SBh3lDfOrI0GvirtiV9u-6">
          <mxCell style="text;html=1;strokeColor=none;fillColor=none;align=center;verticalAlign=middle;whiteSpace=wrap;overflow=hidden;fontColor=#333333;" parent="1" vertex="1">
            <mxGeometry x="190" y="300" width="120" height="20" as="geometry" />
          </mxCell>
        </UserObject>
        <mxCell id="SBh3lDfOrI0GvirtiV9u-7" value="" style="shape=table;startSize=0;container=1;collapsible=0;childLayout=tableLayout;fontSize=16;" parent="1" vertex="1">
          <mxGeometry x="640" y="200" width="70" height="20" as="geometry" />
        </mxCell>
        <mxCell id="SBh3lDfOrI0GvirtiV9u-8" value="" style="shape=tableRow;horizontal=0;startSize=0;swimlaneHead=0;swimlaneBody=0;strokeColor=inherit;top=0;left=0;bottom=0;right=0;collapsible=0;dropTarget=0;fillColor=none;points=[[0,0.5],[1,0.5]];portConstraint=eastwest;fontSize=16;" parent="SBh3lDfOrI0GvirtiV9u-7" vertex="1">
          <mxGeometry width="70" height="20" as="geometry" />
        </mxCell>
        <mxCell id="SBh3lDfOrI0GvirtiV9u-9" value="--" style="shape=partialRectangle;html=1;whiteSpace=wrap;connectable=0;strokeColor=#82b366;overflow=hidden;fillColor=#d5e8d4;top=0;left=0;bottom=0;right=0;pointerEvents=1;fontSize=16;" parent="SBh3lDfOrI0GvirtiV9u-8" vertex="1">
          <mxGeometry width="21" height="20" as="geometry">
            <mxRectangle width="21" height="20" as="alternateBounds" />
          </mxGeometry>
        </mxCell>
        <mxCell id="SBh3lDfOrI0GvirtiV9u-10" value="O" style="shape=partialRectangle;html=1;whiteSpace=wrap;connectable=0;strokeColor=#d79b00;overflow=hidden;fillColor=#ffe6cc;top=0;left=0;bottom=0;right=0;pointerEvents=1;fontSize=16;" parent="SBh3lDfOrI0GvirtiV9u-8" vertex="1">
          <mxGeometry x="21" width="25" height="20" as="geometry">
            <mxRectangle width="25" height="20" as="alternateBounds" />
          </mxGeometry>
        </mxCell>
        <mxCell id="SBh3lDfOrI0GvirtiV9u-11" value="X" style="shape=partialRectangle;html=1;whiteSpace=wrap;connectable=0;strokeColor=#b85450;overflow=hidden;fillColor=#f8cecc;top=0;left=0;bottom=0;right=0;pointerEvents=1;fontSize=16;" parent="SBh3lDfOrI0GvirtiV9u-8" vertex="1">
          <mxGeometry x="46" width="24" height="20" as="geometry">
            <mxRectangle width="24" height="20" as="alternateBounds" />
          </mxGeometry>
        </mxCell>
      </root>
    </mxGraphModel>
  </diagram>
</mxfile>
